<svg xmlns="http://www.w3.org/2000/svg" viewBox="0 0 512 512" width="512" height="512">
  <!-- Full bleed background for maskable (Android crops to shape) -->
  <rect width="512" height="512" fill="#040b11"/>

  <!-- Bullseye (scaled slightly smaller to stay within safe zone) -->
  <circle cx="218" cy="224" r="155" fill="#e8a828"/>
  <circle cx="218" cy="224" r="128" fill="#040b11"/>
  <circle cx="218" cy="224" r="96"  fill="#e8a828"/>
  <circle cx="218" cy="224" r="68"  fill="#040b11"/>
  <circle cx="218" cy="224" r="38"  fill="#e8a828"/>

  <!-- Calculator badge -->
  <rect x="298" y="308" width="168" height="188" rx="14" fill="#0b1d2c" stroke="#e8a828" stroke-width="6"/>
  <rect x="314" y="323" width="136" height="44" rx="5" fill="#e8a828" opacity="0.18"/>
  <rect x="314" y="381" width="36" height="26" rx="5" fill="#e8a828" opacity="0.55"/>
  <rect x="358" y="381" width="36" height="26" rx="5" fill="#e8a828" opacity="0.55"/>
  <rect x="402" y="381" width="36" height="26" rx="5" fill="#e8a828" opacity="0.55"/>
  <rect x="314" y="415" width="36" height="26" rx="5" fill="#e8a828" opacity="0.55"/>
  <rect x="358" y="415" width="36" height="26" rx="5" fill="#e8a828" opacity="0.55"/>
  <rect x="402" y="415" width="36" height="26" rx="5" fill="#e8a828" opacity="0.55"/>
  <rect x="314" y="449" width="80" height="26" rx="5" fill="#e8a828" opacity="0.9"/>
  <rect x="402" y="449" width="36" height="26" rx="5" fill="#e8a828" opacity="0.55"/>
</svg>
